inDegrees=no
num_controls=7
num_derivatives=13
num_iterations=67
num_multipliers=7
num_parameters=0
num_slacks=7
num_states=26
objective=0.333976
objective_accelerations=0.036927
objective_balance=0.001319
objective_effort=0.027165
objective_height=0.267088
objective_ligament=0.001477
solver_duration=730.125574
status=Solve_Succeeded
success=true
DataType=double
version=3
OpenSimVersion=4.5
endheader
time	/jointset/ground_pelvis/pelvis_tilt/value	/jointset/ground_pelvis/pelvis_tx/value	/jointset/ground_pelvis/pelvis_ty/value	/jointset/hip_r/hip_flexion_r/value	/jointset/hip_r/hip_adduction_r/value	/jointset/hip_r/hip_rotation_r/value	/jointset/back/lumbar_extension/value	/jointset/patellofemoral_r/patellar_flexion_r/value	/jointset/knee_r/knee_flexion_r/value	/jointset/knee_r/knee_adduction_r/value	/jointset/knee_r/knee_rotation_r/value	/jointset/ankle_r/ankle_angle_r/value	/jointset/subtalar_r/subtalar_angle_r/value	/jointset/ground_pelvis/pelvis_tilt/speed	/jointset/ground_pelvis/pelvis_tx/speed	/jointset/ground_pelvis/pelvis_ty/speed	/jointset/hip_r/hip_flexion_r/speed	/jointset/hip_r/hip_adduction_r/speed	/jointset/hip_r/hip_rotation_r/speed	/jointset/back/lumbar_extension/speed	/jointset/patellofemoral_r/patellar_flexion_r/speed	/jointset/knee_r/knee_flexion_r/speed	/jointset/knee_r/knee_adduction_r/speed	/jointset/knee_r/knee_rotation_r/speed	/jointset/ankle_r/ankle_angle_r/speed	/jointset/subtalar_r/subtalar_angle_r/speed	/forceset/tau_hip_flexion_r	/forceset/tau_hip_adduction_r	/forceset/tau_hip_rotation_r	/forceset/tau_knee_flexion_r	/forceset/tau_ankle_angle_r	/forceset/tau_subtalar_angle_r	/forceset/tau_lumbar_extension	lambda_cid13_p0	lambda_cid14_p0	lambda_cid14_p1	lambda_cid14_p2	lambda_cid14_p3	lambda_cid14_p4	lambda_cid14_p5	/jointset/ground_pelvis/pelvis_tilt/accel	/jointset/ground_pelvis/pelvis_tx/accel	/jointset/ground_pelvis/pelvis_ty/accel	/jointset/hip_r/hip_flexion_r/accel	/jointset/hip_r/hip_adduction_r/accel	/jointset/hip_r/hip_rotation_r/accel	/jointset/back/lumbar_extension/accel	/jointset/patellofemoral_r/patellar_flexion_r/accel	/jointset/knee_r/knee_flexion_r/accel	/jointset/knee_r/knee_adduction_r/accel	/jointset/knee_r/knee_rotation_r/accel	/jointset/ankle_r/ankle_angle_r/accel	/jointset/subtalar_r/subtalar_angle_r/accel	gamma_cid13_p0	gamma_cid14_p0	gamma_cid14_p1	gamma_cid14_p2	gamma_cid14_p3	gamma_cid14_p4	gamma_cid14_p5
1.5	-0.110615332267813	0.03842616268560414	0.8164742355437519	0.8296558301908274	-0.2267356653335409	-0.1216608786669651	-0.6240803251283884	0.9351671869918756	0.9351671869918809	-0.03471110699354382	0.1745066359207935	0.3059511199184323	0.1372056319085753	0.5238931898785784	0.2234088384567351	0.5102365094090804	-2.073304175827042	-0.0007403441650292759	-0.1752532921088737	0.8029967802828709	-1.956747234906376	-1.956747234906863	0.4935497996974101	-0.0003009330123765107	-0.5261070764355469	-0.210136180581903	-0.172195844504443	0.02095348565013931	0.01759572190352989	-0.2826192873131767	-0.008275704923969986	-0.008089818499282232	0.2185670669076323	-9.396552092582326	-44.94950412730919	-10.79091939774467	1.465156697973308	-0.9330745157216341	-627.3282878637393	51.18273150061573	0.1519897591485324	0.54108987008113	-0.5416364755869716	-0.9621518374921325	-0.2620727117930405	-0.6811530283135083	1.750819717100835	-1.305472655900145	-1.3054726559001	0.4354441639724129	-0.02521636787063566	-0.6663744281329708	-0.4427221699268106	1.7604751226951e-07	1.418765699826317e-07	-1.158121397067224e-06	1.468593515695713e-06	2.667221339378348e-08	3.465396245214606e-07	-8.866799173210263e-07
1.51	-0.1053691410571286	0.04068703912107665	0.821548483161858	0.8088767551516135	-0.2267571291203422	-0.12344709768103	-0.615964590721598	0.9155370436082999	0.9155370436083083	-0.02975210149429729	0.1745035433326066	0.3006572715126209	0.1350810472496385	0.5252661593884265	0.2287349985221689	0.5045024288834865	-2.082225580615315	-0.003560802903411562	-0.1820029507296996	0.8200193289558195	-1.968998455179063	-1.968998455179319	0.4982115593036351	-0.0003147857736314884	-0.5325758174497186	-0.2147395344426778	-0.1643789263845306	0.01886775586957265	0.01777516708027919	-0.2792717146089308	-0.005999105955619581	-0.008782105717747797	0.211496088244039	-10.4253544794316	-43.92262359911565	-10.74623381985591	1.268938733082975	-1.067005082891684	-622.2626232042699	51.24784985850656	0.1181269966278088	0.5236648190658856	-0.6058138291287779	-0.8143311007450138	-0.293151671385586	-0.6734727705782863	1.658356624478625	-1.142530903646022	-1.142530903611339	0.4754543023617181	0.0111941864044742	-0.6240678819081652	-0.4629512905903344	1.660669772792167e-07	1.370227790570958e-07	-1.062263340102021e-06	1.431933121559892e-06	1.983186582674919e-08	3.416004951694343e-07	-8.465299985913182e-07
1.52	-0.1001115848614024	0.04300023430606175	0.8265620859770916	0.7880170268042644	-0.2268070213378346	-0.1253011333796227	-0.6076825539916612	0.8957928711838627	0.8957928711838689	-0.02474769591030097	0.1745004450001375	0.2953013469078978	0.1329116671928061	0.5261661868872708	0.2338725883592542	0.4981075488345587	-2.089434837453592	-0.006426030302785138	-0.188816629014972	0.8362572449122396	-1.979553043079469	-1.979553043079493	0.5026298166464267	-0.0003020818685883623	-0.538522316217846	-0.219095260160954	-0.1565620082646255	0.01678202608901003	0.01795461225698146	-0.2759241419046906	-0.003722506987267754	-0.009474392936205641	0.2044251095804389	-11.45621051636327	-42.89585240238565	-10.70029269091533	1.071064300825967	-1.211295839698369	-617.1921883324563	51.37295813145006	0.05740135694777679	0.5033758244114265	-0.6737963802537899	-0.6197222474928267	-0.2710264439913075	-0.6939569612027982	1.593893173795145	-0.9661461814437206	-0.9661461814437003	0.3867437112857022	-0.01990503461097875	-0.5619259789240737	-0.3931965414270776	1.631635752083961e-07	1.286845922342214e-07	-1.114544552095457e-06	1.32390543876289e-06	3.15391269138484e-08	3.342945427058211e-07	-8.84830030404445e-07
1.53	-0.09484746559336388	0.04536376968544732	0.8315085020027291	0.7670939058877372	-0.226885654823721	-0.1272242025965327	-0.5992421612614602	0.8759516300562084	0.8759516300562071	-0.01970093488559603	0.1744978263990642	0.2898885794552029	0.1307001811893231	0.5265732806663668	0.238793293655443	0.4910719535939611	-2.094888926415957	-0.009302133027733354	-0.1957897373624935	0.8516769499139496	-1.988402233282062	-1.988402233281831	0.5066875423817029	-0.0002325727574817706	-0.5439439643626688	-0.2231538247451008	-0.1487856740650364	0.01460536860878802	0.01814979943041906	-0.2726883964510081	-0.001577738657495785	-0.01025324432148989	0.1973678015755599	-12.48621152082772	-41.94106742743193	-10.7108641650441	0.889411402479635	-1.243531407545125	-612.4119406985935	51.45136721287559	0.01971375106911577	0.4802547570584916	-0.7339326575504831	-0.4631767565996898	-0.2960715345749598	-0.6976177191663988	1.494356481254198	-0.8003971143868415	-0.8003971143486054	0.4098755033913853	0.01890150432653298	-0.5191496375515464	-0.4050718834390932	1.677796268645154e-07	1.16644234770425e-07	-1.324223737357444e-06	1.140050011763385e-06	6.295322219596425e-08	3.244738406861467e-07	-1.006483134669333e-06
